# xmcd CD database file
#
# Track frame offsets:
#	150
#	26986
#	53042
#	76020
#
# Disc length: 1273 seconds
#
# Revision: 1
# Processed by: cddbd v1.5.2PL0 Copyright (c) Steve Scherf et al.
# Submitted via: CDex 1.70beta2
#
DISCID=2604f704
DTITLE=ケツメイシ - 仲間
DYEAR=2010
DGENRE=Japanese Pop
TTITLE0=仲間
TTITLE1=スタジオKTM
TTITLE2=また旅
TTITLE3=肉食系男子のススメ
EXTD=YEAR: 2010
EXTT0=
EXTT1=
EXTT2=
EXTT3=
PLAYORDER=
